<?xml version="1.0" encoding="utf-8"?>
<!-- Generator: Adobe Illustrator 22.1.0, SVG Export Plug-In . SVG Version: 6.00 Build 0)  -->
<svg version="1.1" id="Слой_1" xmlns="http://www.w3.org/2000/svg" xmlns:xlink="http://www.w3.org/1999/xlink" x="0px" y="0px"
	 viewBox="0 0 300 500" style="enable-background:new 0 0 300 500;" xml:space="preserve">
<style type="text/css">
	.st0{fill:#FFFFFF;}
	.st1{fill:none;stroke:#000000;stroke-miterlimit:10;}
	.st2{stroke:#000000;stroke-miterlimit:10;}
	.st3{fill:#FFFFFF;stroke:#000000;stroke-miterlimit:10;}
</style>
<g id="XMLID_4_">
	<g>
		<polygon class="st0" points="261.5,212.5 261.5,498.5 240.5,498.5 240.5,238.5 		"/>
	</g>
	<g>
		<polygon class="st1" points="261.5,212.5 261.5,498.5 240.5,498.5 240.5,238.5 		"/>
	</g>
</g>
<g id="XMLID_3_">
	<g>
		<polygon class="st0" points="221.5,238.5 221.5,498.5 158.5,498.5 158.5,238.5 190.5,199.5 		"/>
	</g>
	<g>
		<polygon class="st1" points="158.5,238.5 158.5,498.5 221.5,498.5 221.5,238.5 190.5,199.5 		"/>
	</g>
</g>
<g id="XMLID_2_">
	<g>
		<polygon class="st0" points="140.5,238.5 140.5,498.5 77.5,498.5 77.5,238.5 109.5,199.5 		"/>
	</g>
	<g>
		<polygon class="st1" points="140.5,238.5 140.5,498.5 77.5,498.5 77.5,238.5 109.5,199.5 		"/>
	</g>
</g>
<g id="XMLID_1_">
	<g>
		<polygon class="st0" points="59.5,238.5 59.5,498.5 37.5,498.5 37.5,210.5 		"/>
	</g>
	<g>
		<polygon class="st1" points="37.5,498.5 59.5,498.5 59.5,238.5 37.5,210.5 		"/>
	</g>
</g>
<path class="st2" d="M281.5,184.9c0-2-0.6-4.1-1.8-5.8L208.1,77.7l0,0L158,6.8c-1.9-2.7-5-4.3-8.3-4.3s-6.4,1.6-8.3,4.3L91.4,77.7
	l0,0L19.9,179c-1.2,1.8-1.8,3.8-1.8,5.8h0V499h20.3V213.8l20.3,25.3V499h20.3V239.1l30.4-38l30.4,38L139.2,499l20.3,0l0.4-259.9
	l30.4-38l30.4,38V499h20.3V239.1l20.3-25.3V499h20.3L281.5,184.9L281.5,184.9z"/>
<path class="st3" d="M230.8,219.3l-32.6-40.8c-1.9-2.4-4.8-3.8-7.9-3.8s-6,1.4-7.9,3.8l-32.6,40.8l-32.6-40.8
	c-1.9-2.4-4.8-3.8-7.9-3.8c-3.1,0-6,1.4-7.9,3.8l-32.6,40.8l-27.9-34.8l64.1-90.8h89.6l64.1,90.8L230.8,219.3z"/>
<polygon class="st3" points="149.7,30.2 180.2,73.4 119.2,73.4 "/>
</svg>
